<svg preserveAspectRatio="none" overflow="visible" style="display: block;" width="98" height="98" viewBox="0 0 98 98" fill="none" xmlns="http://www.w3.org/2000/svg">
<g id="Group 5">
<path id="Vector" d="M97 49C97 75.5097 75.5097 97 49 97C22.4903 97 1 75.5097 1 49C1 22.4903 22.4903 1 49 1C75.5097 1 97 22.4903 97 49ZM91.3171 48.9995C91.3171 25.6282 72.3708 6.68194 48.9995 6.68194C25.6282 6.68194 6.68244 25.6282 6.68244 48.9995C6.68244 72.3708 25.6287 91.3171 49 91.3171C72.3713 91.3171 91.3176 72.3708 91.3176 48.9995H91.3171Z" fill="white" stroke="white" stroke-width="2" stroke-miterlimit="10"/>
<path id="Vector_2" d="M82.3035 48.9975C82.3035 67.391 67.3925 82.3014 48.9996 82.3014C30.6066 82.3014 15.6957 67.3905 15.6957 48.9975C15.6957 30.6046 30.6061 15.6937 48.9996 15.6937C67.393 15.6937 82.3035 30.6046 82.3035 48.9975ZM77.1794 49C77.1794 33.4371 64.563 20.8207 49.0001 20.8207C33.4371 20.8207 20.8207 33.4371 20.8207 49C20.8207 64.563 33.4371 77.1794 49.0001 77.1794C64.563 77.1794 77.1794 64.563 77.1794 49Z" fill="white" stroke="white" stroke-width="2" stroke-miterlimit="10"/>
<path id="Vector_3" d="M66.5847 49C66.5847 58.7113 58.7118 66.5842 49.0005 66.5842C39.2893 66.5842 31.4164 58.7113 31.4164 49C31.4164 39.2887 39.2893 31.4158 49.0005 31.4158C58.7118 31.4158 66.5847 39.2887 66.5847 49ZM62.6926 48.9975C62.6926 41.4351 56.5619 35.3039 48.999 35.3039C41.4361 35.3039 35.3055 41.4346 35.3055 48.9975C35.3055 56.5604 41.4361 62.691 48.999 62.691C56.5619 62.691 62.6926 56.5604 62.6926 48.9975Z" fill="white" stroke="white" stroke-width="4" stroke-miterlimit="10"/>
</g>
</svg>
